%TF.GenerationSoftware,KiCad,Pcbnew,9.0.3*%
%TF.CreationDate,2025-07-24T19:08:26+05:30*%
%TF.ProjectId,hackpad,6861636b-7061-4642-9e6b-696361645f70,rev?*%
%TF.SameCoordinates,Original*%
%TF.FileFunction,Soldermask,Bot*%
%TF.FilePolarity,Negative*%
%FSLAX46Y46*%
G04 Gerber Fmt 4.6, Leading zero omitted, Abs format (unit mm)*
G04 Created by KiCad (PCBNEW 9.0.3) date 2025-07-24 19:08:26*
%MOMM*%
%LPD*%
G01*
G04 APERTURE LIST*
G04 Aperture macros list*
%AMRoundRect*
0 Rectangle with rounded corners*
0 $1 Rounding radius*
0 $2 $3 $4 $5 $6 $7 $8 $9 X,Y pos of 4 corners*
0 Add a 4 corners polygon primitive as box body*
4,1,4,$2,$3,$4,$5,$6,$7,$8,$9,$2,$3,0*
0 Add four circle primitives for the rounded corners*
1,1,$1+$1,$2,$3*
1,1,$1+$1,$4,$5*
1,1,$1+$1,$6,$7*
1,1,$1+$1,$8,$9*
0 Add four rect primitives between the rounded corners*
20,1,$1+$1,$2,$3,$4,$5,0*
20,1,$1+$1,$4,$5,$6,$7,0*
20,1,$1+$1,$6,$7,$8,$9,0*
20,1,$1+$1,$8,$9,$2,$3,0*%
%AMRotRect*
0 Rectangle, with rotation*
0 The origin of the aperture is its center*
0 $1 length*
0 $2 width*
0 $3 Rotation angle, in degrees counterclockwise*
0 Add horizontal line*
21,1,$1,$2,0,0,$3*%
G04 Aperture macros list end*
%ADD10C,3.500000*%
%ADD11C,1.700000*%
%ADD12C,4.000000*%
%ADD13C,2.200000*%
%ADD14R,2.000000X2.000000*%
%ADD15C,2.000000*%
%ADD16R,3.200000X2.000000*%
%ADD17R,1.600000X1.600000*%
%ADD18O,1.600000X1.600000*%
%ADD19R,0.850000X1.600000*%
%ADD20RotRect,1.600000X0.850000X225.000000*%
%ADD21R,1.600000X0.850000*%
%ADD22RoundRect,0.152400X-1.063600X-0.609600X1.063600X-0.609600X1.063600X0.609600X-1.063600X0.609600X0*%
%ADD23C,1.524000*%
%ADD24RoundRect,0.152400X1.063600X0.609600X-1.063600X0.609600X-1.063600X-0.609600X1.063600X-0.609600X0*%
%ADD25R,1.700000X1.700000*%
%ADD26O,1.700000X1.700000*%
%ADD27RotRect,1.600000X0.850000X45.000000*%
%ADD28RotRect,1.600000X0.850000X135.000000*%
%ADD29RotRect,1.600000X0.850000X315.000000*%
G04 APERTURE END LIST*
D10*
%TO.C,REF\u002A\u002A*%
X166422000Y-128791661D03*
%TD*%
D11*
%TO.C,SW4*%
X123230000Y-100156500D03*
D12*
X128310000Y-100156500D03*
D11*
X133390000Y-100156500D03*
D13*
X130850000Y-95076500D03*
X124500000Y-97616500D03*
%TD*%
D14*
%TO.C,SW3*%
X159160000Y-78606500D03*
D15*
X159160000Y-83606500D03*
X159160000Y-81106500D03*
D16*
X166660000Y-75506500D03*
X166660000Y-86706500D03*
D15*
X173660000Y-83606500D03*
X173660000Y-78606500D03*
%TD*%
D11*
%TO.C,SW1*%
X123230000Y-81106500D03*
D12*
X128310000Y-81106500D03*
D11*
X133390000Y-81106500D03*
D13*
X130850000Y-76026500D03*
X124500000Y-78566500D03*
%TD*%
D11*
%TO.C,SW9*%
X161330000Y-119206500D03*
D12*
X166410000Y-119206500D03*
D11*
X171490000Y-119206500D03*
D13*
X168950000Y-114126500D03*
X162600000Y-116666500D03*
%TD*%
D10*
%TO.C,REF\u002A\u002A*%
X118922000Y-100266661D03*
%TD*%
D11*
%TO.C,SW7*%
X123230000Y-119206500D03*
D12*
X128310000Y-119206500D03*
D11*
X133390000Y-119206500D03*
D13*
X130850000Y-114126500D03*
X124500000Y-116666500D03*
%TD*%
D10*
%TO.C,REF\u002A\u002A*%
X175672000Y-100266661D03*
%TD*%
D11*
%TO.C,SW2*%
X142280000Y-81106500D03*
D12*
X147360000Y-81106500D03*
D11*
X152440000Y-81106500D03*
D13*
X149900000Y-76026500D03*
X143550000Y-78566500D03*
%TD*%
D10*
%TO.C,REF\u002A\u002A*%
X128285000Y-72016661D03*
%TD*%
D11*
%TO.C,SW5*%
X142280000Y-100156500D03*
D12*
X147360000Y-100156500D03*
D11*
X152440000Y-100156500D03*
D13*
X149900000Y-95076500D03*
X143550000Y-97616500D03*
%TD*%
D11*
%TO.C,SW8*%
X142280000Y-119206500D03*
D12*
X147360000Y-119206500D03*
D11*
X152440000Y-119206500D03*
D13*
X149900000Y-114126500D03*
X143550000Y-116666500D03*
%TD*%
D11*
%TO.C,SW6*%
X161330000Y-100156500D03*
D12*
X166410000Y-100156500D03*
D11*
X171490000Y-100156500D03*
D13*
X168950000Y-95076500D03*
X162600000Y-97616500D03*
%TD*%
D10*
%TO.C,REF\u002A\u002A*%
X166422000Y-71766661D03*
%TD*%
%TO.C,REF\u002A\u002A*%
X128285000Y-128516661D03*
%TD*%
D17*
%TO.C,D7*%
X128932000Y-110951500D03*
D18*
X136552000Y-110951500D03*
%TD*%
D19*
%TO.C,D20*%
X118677000Y-107323653D03*
X120427000Y-107323653D03*
X120427000Y-110823653D03*
X118677000Y-110823653D03*
%TD*%
D17*
%TO.C,D8*%
X142052000Y-110951500D03*
D18*
X149672000Y-110951500D03*
%TD*%
D17*
%TO.C,D2*%
X141100000Y-90800000D03*
D18*
X148720000Y-90800000D03*
%TD*%
D20*
%TO.C,D10*%
X120814563Y-71214063D03*
X122052000Y-72451500D03*
X119577127Y-74926373D03*
X118339690Y-73688936D03*
%TD*%
D17*
%TO.C,D6*%
X158742000Y-108451500D03*
D18*
X166362000Y-108451500D03*
%TD*%
D19*
%TO.C,D15*%
X176052000Y-110902797D03*
X174302000Y-110902797D03*
X174302000Y-107402797D03*
X176052000Y-107402797D03*
%TD*%
D17*
%TO.C,D5*%
X139552000Y-108451500D03*
D18*
X147172000Y-108451500D03*
%TD*%
D21*
%TO.C,D18*%
X136736171Y-128701500D03*
X136736171Y-126951500D03*
X140236171Y-126951500D03*
X140236171Y-128701500D03*
%TD*%
D22*
%TO.C,U1*%
X155875000Y-70500000D03*
D23*
X155040000Y-70500000D03*
D22*
X155875000Y-73040000D03*
D23*
X155040000Y-73040000D03*
D22*
X155875000Y-75580000D03*
D23*
X155040000Y-75580000D03*
D22*
X155875000Y-78120000D03*
D23*
X155040000Y-78120000D03*
D22*
X155875000Y-80660000D03*
D23*
X155040000Y-80660000D03*
D22*
X155875000Y-83200000D03*
D23*
X155040000Y-83200000D03*
D22*
X155875000Y-85740000D03*
D23*
X155040000Y-85740000D03*
X139800000Y-85740000D03*
D24*
X138965000Y-85740000D03*
D23*
X139800000Y-83200000D03*
D24*
X138965000Y-83200000D03*
D23*
X139800000Y-80660000D03*
D24*
X138965000Y-80660000D03*
D23*
X139800000Y-78120000D03*
D24*
X138965000Y-78120000D03*
D23*
X139800000Y-75580000D03*
D24*
X138965000Y-75580000D03*
D23*
X139800000Y-73040000D03*
D24*
X138965000Y-73040000D03*
D23*
X139800000Y-70500000D03*
D24*
X138965000Y-70500000D03*
%TD*%
D25*
%TO.C,OL1*%
X157552000Y-103324000D03*
D26*
X157552000Y-100784000D03*
X157552000Y-98244000D03*
X157552000Y-95704000D03*
%TD*%
D27*
%TO.C,D16*%
X173933282Y-129307655D03*
X172695845Y-128070218D03*
X175170718Y-125595345D03*
X176408155Y-126832782D03*
%TD*%
D17*
%TO.C,D3*%
X154200000Y-91800000D03*
D18*
X161820000Y-91800000D03*
%TD*%
D21*
%TO.C,D12*%
X161802000Y-71576500D03*
X161802000Y-73326500D03*
X158302000Y-73326500D03*
X158302000Y-71576500D03*
%TD*%
D17*
%TO.C,D9*%
X161052000Y-110951500D03*
D18*
X168672000Y-110951500D03*
%TD*%
D28*
%TO.C,D13*%
X176289437Y-73688936D03*
X175052000Y-74926373D03*
X172577127Y-72451500D03*
X173814564Y-71214063D03*
%TD*%
D19*
%TO.C,D14*%
X176052000Y-93118919D03*
X174302000Y-93118919D03*
X174302000Y-89618919D03*
X176052000Y-89618919D03*
%TD*%
D17*
%TO.C,D1*%
X130552000Y-89451500D03*
D18*
X122932000Y-89451500D03*
%TD*%
D19*
%TO.C,D21*%
X118677000Y-89579347D03*
X120427000Y-89579347D03*
X120427000Y-93079347D03*
X118677000Y-93079347D03*
%TD*%
D29*
%TO.C,D19*%
X118339690Y-126714064D03*
X119577127Y-125476627D03*
X122052000Y-127951500D03*
X120814563Y-129188937D03*
%TD*%
D21*
%TO.C,D11*%
X136302000Y-71576500D03*
X136302000Y-73326500D03*
X132802000Y-73326500D03*
X132802000Y-71576500D03*
%TD*%
%TO.C,D17*%
X154511674Y-128826500D03*
X154511674Y-127076500D03*
X158011674Y-127076500D03*
X158011674Y-128826500D03*
%TD*%
D17*
%TO.C,D4*%
X125742000Y-108451500D03*
D18*
X133362000Y-108451500D03*
%TD*%
M02*
